<svg width="512" height="512" viewBox="0 0 512 512" fill="none" xmlns="http://www.w3.org/2000/svg">
<rect width="512" height="512" rx="60" fill="white"/>
<g clip-path="url(#clip0_3306_55024)">
<path fill-rule="evenodd" clip-rule="evenodd" d="M312.504 286.543C312.504 296.737 320.768 305.001 330.962 305.001H401.717C403.416 305.001 404.793 306.378 404.793 308.077V378.282V378.832H404.801C405.092 388.772 413.241 396.74 423.251 396.74C433.261 396.74 441.41 388.772 441.701 378.832H441.709V378.282V305.001V280.39C441.709 273.594 436.2 268.085 429.404 268.085H404.793H330.962C320.768 268.085 312.504 276.349 312.504 286.543Z" fill="black"/>
<path fill-rule="evenodd" clip-rule="evenodd" d="M404.793 415.198C404.793 405.004 396.53 396.74 386.336 396.74H315.581C313.882 396.74 312.504 395.362 312.504 393.664V323.458V322.909H312.496C312.206 312.969 304.057 305.001 294.047 305.001C284.037 305.001 275.888 312.969 275.597 322.909H275.589V323.458V396.74V421.35C275.589 428.146 281.098 433.655 287.894 433.655H312.504H386.336C396.53 433.655 404.793 425.392 404.793 415.198Z" fill="black"/>
<path fill-rule="evenodd" clip-rule="evenodd" d="M75.2457 428.079C82.4539 435.287 94.1408 435.287 101.349 428.079L151.38 378.048C152.582 376.846 154.529 376.846 155.731 378.048L205.373 427.69L205.762 428.079L205.768 428.073C213.002 434.896 224.398 434.768 231.477 427.69C238.555 420.612 238.682 409.215 231.86 401.981L231.865 401.976L231.477 401.587L179.659 349.769L162.257 332.367C157.451 327.561 149.66 327.561 144.854 332.367L127.452 349.769L75.2457 401.976C68.0375 409.184 68.0375 420.871 75.2457 428.079Z" fill="#FF7201"/>
<path fill-rule="evenodd" clip-rule="evenodd" d="M75.0516 272.378C82.2599 265.17 93.9467 265.17 101.155 272.378L151.186 322.409C152.388 323.611 154.335 323.611 155.537 322.409L205.179 272.767L205.568 272.378L205.574 272.384C212.808 265.561 224.204 265.689 231.282 272.767C238.361 279.845 238.488 291.242 231.666 298.476L231.671 298.481L231.282 298.87L179.465 350.688L162.063 368.09C157.257 372.896 149.466 372.896 144.66 368.09L127.258 350.688L75.0516 298.481C67.8434 291.273 67.8434 279.586 75.0516 272.378Z" fill="#FF7201"/>
<path fill-rule="evenodd" clip-rule="evenodd" d="M277 96.5548C277 106.749 285.264 115.013 295.458 115.013H339.844C341.543 115.013 342.921 116.39 342.92 118.089L342.913 225.837V226.386H342.921C343.211 236.326 351.36 244.294 361.37 244.294C371.381 244.294 379.529 236.326 379.82 226.386H379.828V225.837L379.836 115.013V90.4022C379.836 83.6063 374.327 78.097 367.531 78.097H342.921H295.458C285.264 78.097 277 86.3609 277 96.5548Z" fill="#FF7201"/>
<path d="M419.674 78.097C429.868 78.097 438.132 86.3608 438.132 96.5548C438.132 106.749 429.868 115.013 419.674 115.013C409.48 115.013 401.216 106.749 401.216 96.5548C401.216 86.3608 409.48 78.097 419.674 78.097Z" fill="#FF7201"/>
<path fill-rule="evenodd" clip-rule="evenodd" d="M236.122 96.4441L236.122 96.4578L236.122 96.4715L236.12 188.92V189.471H236.112C235.821 199.41 227.672 207.379 217.662 207.379C207.652 207.379 199.503 199.41 199.212 189.471H199.204V188.926L199.204 188.921L199.204 188.916L199.206 96.4578L199.206 95.899H199.214C199.51 85.9636 207.657 78 217.664 78C227.671 78 235.818 85.9636 236.113 95.899H236.122V96.4441Z" fill="black"/>
<path fill-rule="evenodd" clip-rule="evenodd" d="M199.205 225.837C199.205 215.643 190.941 207.379 180.747 207.379H109.992C108.293 207.379 106.916 206.002 106.916 204.303V97.1821V96.6323H106.908C106.617 86.6926 98.4679 78.7243 88.4578 78.7243C78.4477 78.7243 70.2988 86.6926 70.008 96.6323H70V97.1821V207.379V231.989C70 238.785 75.5092 244.295 82.3052 244.295H106.916H180.747C190.941 244.295 199.205 236.031 199.205 225.837Z" fill="black"/>
</g>
<defs>
<clipPath id="clip0_3306_55024">
<rect width="372" height="356" fill="white" transform="translate(70 78)"/>
</clipPath>
</defs>
</svg>
